<mxfile host="app.diagrams.net" modified="2022-01-27T02:44:30.903Z" agent="5.0 (Macintosh; Intel Mac OS X 10_15_7) AppleWebKit/537.36 (KHTML, like Gecko) Chrome/96.0.4664.55 Safari/537.36" etag="fCbYWIUaAFRPTRuKCxAl" version="15.8.6" type="github">
  <diagram id="HrLf241Dn2-zn0HaQT4l" name="Page-1">
    <mxGraphModel dx="1251" dy="706" grid="1" gridSize="10" guides="1" tooltips="1" connect="1" arrows="1" fold="1" page="1" pageScale="1" pageWidth="827" pageHeight="2500" math="0" shadow="0">
      <root>
        <mxCell id="0" />
        <mxCell id="1" parent="0" />
      </root>
    </mxGraphModel>
  </diagram>
</mxfile>
